<svg aria-hidden="true" style="position: absolute; width: 0; height: 0; overflow: hidden;" version="1.1" xmlns="http://www.w3.org/2000/svg">
<defs>
<symbol id="logo-footer" viewBox="0 0 216 20">
<path d="M18.1764 0.196155H15.6704C14.8972 0.196155 14.2704 0.810434 14.2704 1.56823V4.02403C14.2704 4.78183 14.8972 5.39615 15.6704 5.39615H18.1764C18.9496 5.39615 19.5765 4.78183 19.5765 4.02403V1.56823C19.5765 0.810434 18.9496 0.196155 18.1764 0.196155Z" fill="#FBFBFB"/>
<path d="M4.20649 14.4H1.5078C0.675061 14.4 0 15.0143 0 15.7721V18.2279C0 18.9857 0.675061 19.6 1.5078 19.6H4.20649C5.03922 19.6 5.71429 18.9857 5.71429 18.2279V15.7721C5.71429 15.0143 5.03922 14.4 4.20649 14.4Z" fill="#FBFBFB"/>
<path d="M3.906 7.23864H1.40008C0.626857 7.23864 0 7.85292 0 8.61072V11.0665C0 11.8243 0.626999 12.4386 1.40022 12.4386H3.906C4.67927 12.4386 5.30612 11.8243 5.30612 11.0665V8.61072C5.30612 7.85292 4.67927 7.23864 3.906 7.23864Z" fill="#FBFBFB"/>
<path d="M11.1037 14.3614H8.59777C7.82455 14.3614 7.19769 14.9756 7.19769 15.7334L7.19755 18.1892C7.19755 18.947 7.82469 19.5614 8.59792 19.5614H11.1037C11.877 19.5614 12.5038 18.947 12.5038 18.1892V15.7334C12.5038 14.9756 11.877 14.3614 11.1037 14.3614Z" fill="#FBFBFB"/>
<path d="M3.906 0.0539201H1.40008C0.626857 0.0539201 0 0.668199 0 1.426V3.8818C0 4.6396 0.626999 5.25392 1.40022 5.25392H3.906C4.67927 5.25392 5.30612 4.6396 5.30612 3.8818V1.426C5.30612 0.668199 4.67927 0.0539201 3.906 0.0539201Z" fill="#FBFBFB"/>
<path d="M11.2974 7.31092H8.79151C8.01828 7.31092 7.39143 7.9252 7.39143 8.683V11.1388C7.39143 11.8966 8.01843 12.5109 8.79165 12.5109H11.2974C12.0707 12.5109 12.6975 11.8966 12.6975 11.1388V8.683C12.6975 7.9252 12.0707 7.31092 11.2974 7.31092Z" fill="#FBFBFB"/>
<path d="M18.3333 14.3614H15.8274C15.0542 14.3614 14.4273 14.9756 14.4273 15.7334V18.1892C14.4273 18.947 15.0543 19.5614 15.8276 19.5614H18.3333C19.1066 19.5614 19.7335 18.947 19.7335 18.1892V15.7334C19.7335 14.9756 19.1066 14.3614 18.3333 14.3614Z" fill="#FBFBFB"/>
<path d="M10.9941 0.139817H8.4882C7.71498 0.139817 7.08812 0.754096 7.08812 1.5119V3.96769C7.08812 4.72549 7.71512 5.33982 8.48834 5.33982H10.9941C11.7674 5.33982 12.3942 4.72504 12.3942 3.96724V1.5119C12.3942 0.754096 11.7674 0.139817 10.9941 0.139817Z" fill="#FBFBFB"/>
<path d="M18.1523 7.45364H15.6464C14.8732 7.45364 14.2463 8.06792 14.2463 8.82572V11.2815C14.2463 12.0393 14.8733 12.6536 15.6466 12.6536H18.1523C18.9256 12.6536 19.5525 12.0393 19.5525 11.2815V8.82572C19.5525 8.06792 18.9256 7.45364 18.1523 7.45364Z" fill="#FBFBFB"/>
<path d="M36.9447 18.8893C32.1019 18.8893 28.8887 15.6227 28.8887 10.5338C28.8887 5.55599 32.056 2.22266 36.8299 2.22266C40.8465 2.22266 43.6695 4.51154 44.0827 7.95599H40.7547C40.4333 5.97821 38.8956 4.8671 36.8299 4.8671C33.938 4.8671 32.2167 7.13377 32.2167 10.5338C32.2167 14.2671 34.1446 16.2449 36.9447 16.2449C39.3776 16.2449 40.9383 14.9115 41.0989 12.9115V12.6893H36.6234V10.2004H44.1974V12.2449C44.0597 16.2227 41.1678 18.8893 36.9447 18.8893Z" fill="#FBFBFB"/>
<path d="M46.2039 18.6671V2.44488H54.2599C58.3682 2.44488 59.9978 4.37821 59.9978 7.17821C59.9978 9.68932 58.1617 10.8893 56.0272 11.1782V11.2449C57.4043 11.5782 58.024 12.3115 58.5978 13.756C59.3322 15.5782 59.447 17.756 60.388 18.5338V18.6671H56.7157C55.9354 17.9115 55.7518 15.5338 55.3386 14.0893C54.9255 12.6004 54.0304 12.4227 52.3549 12.4227H49.4171V18.6671H46.2039ZM49.4171 9.84488H53.9156C55.7977 9.84488 56.6698 8.77821 56.6698 7.40043C56.6698 5.88932 55.5911 5.02266 53.9156 5.02266H49.4171V9.84488Z" fill="#FBFBFB"/>
<path d="M62.132 18.6671V2.44488H73.5848V5.02266H65.3452V8.88932H72.7815V11.4671H65.3452V16.0227H73.6996V18.6671H62.132Z" fill="#FBFBFB"/>
<path d="M75.9307 18.6671V2.44488H87.3836V5.02266H79.144V8.88932H86.5803V11.4671H79.144V16.0227H87.4983V18.6671H75.9307Z" fill="#FBFBFB"/>
<path d="M89.7295 18.6671V2.44488H93.6313L99.1856 11.4004C100.884 14.1115 101.091 15.0004 101.091 15.0004H101.159L101.114 2.44488H104.327V18.6671H100.402L94.6411 9.44488C93.3329 7.35599 92.9886 6.08932 92.9886 6.08932H92.9427V18.6671H89.7295Z" fill="#FBFBFB"/>
<path d="M106.744 18.6671V15.3782H110.095V18.6671H106.744Z" fill="#FBFBFB"/>
<path d="M112.508 18.6671V2.44488H115.721V8.93377H123.41V2.44488H126.623V18.6671H123.41V11.5115H115.721V18.6671H112.508Z" fill="#FBFBFB"/>
<path d="M127.997 18.6671L134.423 2.44488H137.912L144.43 18.6671H140.987L139.633 14.9338H132.679L131.325 18.6671H127.997ZM133.597 12.356H138.715L137.223 8.35599C136.19 5.40043 136.167 4.8671 136.167 4.8671H136.122C136.122 4.8671 136.122 5.40043 135.089 8.35599L133.597 12.356Z" fill="#FBFBFB"/>
<path d="M145.799 18.6671V2.44488H153.855C157.963 2.44488 159.593 4.37821 159.593 7.17821C159.593 9.68932 157.757 10.8893 155.622 11.1782V11.2449C156.999 11.5782 157.619 12.3115 158.193 13.756C158.927 15.5782 159.042 17.756 159.983 18.5338V18.6671H156.311C155.53 17.9115 155.347 15.5338 154.933 14.0893C154.52 12.6004 153.625 12.4227 151.95 12.4227H149.012V18.6671H145.799ZM149.012 9.84488H153.51C155.392 9.84488 156.265 8.77821 156.265 7.40043C156.265 5.88932 155.186 5.02266 153.51 5.02266H149.012V9.84488Z" fill="#FBFBFB"/>
<path d="M165.133 18.6671L158.982 2.44488H162.425C162.425 2.44488 165.753 11.5338 166.097 12.6449C166.648 14.4227 166.901 15.3338 166.901 15.3338H166.947C166.924 15.3338 167.176 14.4227 167.75 12.6449C168.117 11.5338 171.307 2.44488 171.307 2.44488H174.635L168.714 18.6671H165.133Z" fill="#FBFBFB"/>
<path d="M175.951 18.6671V2.44488H187.404V5.02266H179.165V8.88932H186.601V11.4671H179.165V16.0227H187.519V18.6671H175.951Z" fill="#FBFBFB"/>
<path d="M195.496 18.8893C191.227 18.8893 188.657 16.6449 188.657 13.3115H192.329C192.283 15.2004 193.568 16.2449 195.496 16.2449C197.539 16.2449 198.503 15.4671 198.503 14.3115C198.503 13.156 197.677 12.6671 194.739 11.8893C192.053 11.1782 189.116 10.3338 189.116 7.00043C189.116 4.35599 191.503 2.22266 195.267 2.22266C199.145 2.22266 201.624 4.33377 201.624 7.31154H198.067C198.044 5.73377 196.942 4.8671 195.267 4.8671C193.637 4.8671 192.558 5.6671 192.558 6.73377C192.558 8.00043 193.453 8.40043 195.795 9.04488C199.26 9.97821 202.06 10.356 202.06 13.9782C202.06 16.8893 199.329 18.8893 195.496 18.8893Z" fill="#FBFBFB"/>
<path d="M207.293 18.6671V5.08932H202.22V2.44488H215.555V5.08932H210.506V18.6671H207.293Z" fill="#FBFBFB"/>
</symbol>
</defs>
</svg>